<svg id="svg" version="1.1" xmlns="http://www.w3.org/2000/svg" xmlns:xlink="http://www.w3.org/1999/xlink" width="400" height="400" viewBox="0, 0, 400,400"><g id="svgg"><path id="path0" d="M226.171 21.501 C 225.935 21.665,225.625 22.115,225.483 22.500 C 225.261 23.103,224.669 23.200,221.213 23.200 C 219.006 23.200,217.221 23.335,217.247 23.500 C 217.426 24.632,217.110 25.201,216.300 25.206 C 215.805 25.210,214.804 25.738,214.076 26.380 C 213.348 27.022,212.203 27.668,211.532 27.815 C 209.520 28.257,201.537 32.520,197.351 35.388 C 192.185 38.927,184.127 46.530,181.440 50.400 C 176.515 57.493,173.600 62.142,173.600 62.903 C 173.600 63.232,173.331 63.726,173.001 63.999 C 172.672 64.272,172.146 65.329,171.832 66.348 C 171.519 67.367,170.888 68.913,170.431 69.785 C 169.974 70.656,169.596 71.736,169.591 72.185 C 169.586 72.633,169.243 73.748,168.828 74.662 C 168.413 75.575,167.872 77.621,167.626 79.208 C 167.380 80.795,166.995 82.436,166.770 82.856 C 165.424 85.371,165.382 104.955,166.714 109.000 C 167.149 110.320,167.620 112.332,167.762 113.472 C 167.904 114.611,168.361 116.321,168.778 117.272 C 169.196 118.222,169.664 119.720,169.819 120.600 C 169.974 121.480,170.330 122.470,170.609 122.800 C 170.888 123.130,171.395 124.210,171.736 125.200 C 172.076 126.190,172.905 127.990,173.577 129.200 C 174.250 130.410,175.066 131.971,175.392 132.668 C 176.097 134.177,177.985 137.040,180.097 139.800 C 180.939 140.900,182.027 142.320,182.514 142.956 C 184.078 144.995,191.474 152.137,194.078 154.123 C 195.465 155.180,197.291 156.568,198.135 157.207 C 198.979 157.846,200.046 158.488,200.504 158.633 C 200.963 158.779,201.701 159.236,202.145 159.649 C 202.588 160.062,203.163 160.400,203.421 160.400 C 203.680 160.400,204.321 160.727,204.846 161.127 C 205.371 161.527,206.430 162.096,207.200 162.393 C 207.970 162.689,208.870 163.155,209.200 163.429 C 209.530 163.702,210.606 164.140,211.591 164.403 C 212.576 164.665,213.783 165.312,214.272 165.840 C 214.763 166.369,215.619 166.800,216.181 166.800 C 217.140 166.800,217.379 167.138,217.233 168.286 C 217.189 168.633,218.345 168.804,221.286 168.886 C 224.317 168.970,225.374 169.132,225.300 169.500 C 225.245 169.775,225.391 170.000,225.624 170.000 C 225.857 170.000,225.942 170.171,225.812 170.380 C 225.666 170.617,230.785 170.765,239.414 170.773 L 253.251 170.786 254.150 169.816 C 254.936 168.968,255.439 168.836,258.145 168.764 C 260.341 168.706,261.187 168.544,261.058 168.208 C 260.958 167.947,261.121 167.733,261.421 167.733 C 261.720 167.733,261.872 167.883,261.759 168.067 C 261.645 168.250,261.743 168.400,261.976 168.400 C 262.546 168.400,262.511 167.874,261.900 167.247 C 261.499 166.834,261.518 166.749,262.000 166.814 C 265.028 167.222,267.212 166.782,267.034 165.800 C 266.864 164.861,269.144 164.349,271.700 164.753 C 271.865 164.779,271.955 164.575,271.900 164.300 C 271.845 164.025,272.025 163.845,272.300 163.900 C 272.575 163.955,272.755 163.775,272.700 163.500 C 272.635 163.173,273.293 162.931,274.600 162.800 C 276.361 162.624,276.596 162.492,276.568 161.700 C 276.541 160.940,276.744 160.800,277.876 160.800 C 279.105 160.800,279.195 160.718,278.964 159.800 C 278.726 158.849,280.250 158.397,282.500 158.753 C 282.665 158.779,282.779 158.665,282.753 158.500 C 282.605 157.566,282.927 157.114,284.008 156.737 C 284.762 156.474,285.175 156.078,285.108 155.683 C 285.034 155.248,285.433 154.959,286.380 154.759 C 287.168 154.593,288.084 154.023,288.515 153.432 C 288.930 152.862,289.438 152.500,289.645 152.628 C 289.851 152.755,289.970 152.621,289.910 152.330 C 289.849 152.038,290.038 151.849,290.330 151.910 C 290.621 151.970,290.751 151.844,290.619 151.630 C 290.404 151.283,291.066 150.741,292.191 150.339 C 292.406 150.263,292.618 149.959,292.661 149.663 C 292.760 148.987,292.987 148.760,293.663 148.661 C 293.959 148.618,294.215 148.496,294.232 148.391 C 294.339 147.761,295.286 146.405,295.520 146.547 C 295.674 146.640,296.032 146.465,296.316 146.158 C 296.599 145.851,296.712 145.600,296.567 145.600 C 296.421 145.600,296.497 145.366,296.734 145.079 C 296.972 144.793,297.063 144.163,296.937 143.679 C 296.736 142.911,296.866 142.800,297.971 142.800 C 298.750 142.800,299.210 142.608,299.170 142.300 C 299.028 141.206,299.238 140.850,300.100 140.728 C 300.751 140.635,301.007 140.323,301.025 139.600 C 301.039 139.049,301.263 138.645,301.525 138.700 C 301.786 138.755,301.955 138.575,301.900 138.300 C 301.845 138.025,302.025 137.845,302.300 137.900 C 302.575 137.955,302.766 137.865,302.724 137.700 C 302.472 136.710,303.334 134.800,304.032 134.800 C 304.687 134.800,304.800 134.506,304.800 132.800 C 304.800 130.933,304.867 130.800,305.800 130.800 C 306.733 130.800,306.800 130.667,306.800 128.800 C 306.800 126.933,306.867 126.800,307.800 126.800 C 308.727 126.800,308.800 126.660,308.800 124.895 C 308.800 123.303,308.948 122.925,309.700 122.595 C 310.478 122.254,310.627 121.820,310.800 119.400 C 310.976 116.933,311.095 116.600,311.800 116.600 C 312.552 116.600,312.607 116.293,312.722 111.460 C 312.838 106.621,312.901 106.268,313.809 105.427 C 314.576 104.715,314.674 104.426,314.287 104.008 C 313.904 103.594,313.906 103.542,314.297 103.763 C 315.381 104.375,314.864 87.228,313.766 86.129 C 312.912 85.276,312.832 84.833,312.774 80.652 C 312.708 75.847,312.478 74.931,311.440 75.329 C 310.872 75.547,310.407 71.520,310.763 69.470 C 310.794 69.289,310.652 69.244,310.446 69.372 C 309.465 69.978,308.800 69.083,308.800 67.157 C 308.800 66.081,308.665 65.221,308.500 65.247 C 307.054 65.476,306.800 65.167,306.800 63.182 C 306.800 61.562,306.602 60.966,305.800 60.164 C 305.250 59.614,304.800 58.795,304.800 58.344 C 304.800 57.883,304.476 57.440,304.057 57.331 C 303.229 57.114,302.316 54.683,302.694 53.700 C 302.879 53.217,302.740 53.123,302.090 53.292 C 301.405 53.472,301.222 53.313,301.122 52.457 C 301.036 51.713,300.734 51.362,300.100 51.272 C 299.458 51.181,299.200 50.875,299.200 50.203 C 299.200 49.675,298.632 48.693,297.906 47.968 C 297.195 47.256,296.610 46.388,296.606 46.037 C 296.603 45.687,296.356 45.451,296.058 45.514 C 295.189 45.697,294.464 44.843,294.704 43.922 C 294.891 43.210,294.788 43.110,294.064 43.299 C 293.091 43.554,292.559 42.968,292.745 41.844 C 292.842 41.252,292.688 41.136,292.029 41.308 C 291.262 41.509,290.119 40.414,290.597 39.936 C 290.690 39.844,290.395 39.740,289.943 39.706 C 289.490 39.672,288.874 39.319,288.573 38.922 C 288.137 38.347,288.022 38.322,288.007 38.800 C 287.991 39.307,287.932 39.312,287.631 38.836 C 287.435 38.526,287.351 38.071,287.446 37.824 C 287.542 37.575,287.155 37.338,286.573 37.290 C 285.185 37.175,284.790 36.892,285.054 36.204 C 285.197 35.830,284.915 35.544,284.233 35.373 C 283.590 35.211,283.102 34.747,282.953 34.156 C 282.741 33.311,282.486 33.200,280.757 33.200 C 278.936 33.200,278.800 33.130,278.800 32.200 C 278.800 31.351,278.615 31.200,277.576 31.200 C 276.903 31.200,276.449 31.044,276.567 30.853 C 276.773 30.520,275.282 28.895,274.958 29.100 C 274.141 29.617,272.800 29.094,272.800 28.258 C 272.800 27.370,272.647 27.312,270.118 27.242 C 267.103 27.159,267.180 27.189,267.096 26.073 C 267.062 25.623,266.936 25.264,266.817 25.275 C 264.645 25.472,262.797 25.118,262.772 24.500 C 262.748 23.901,262.694 23.916,262.400 24.600 C 262.211 25.040,262.044 25.162,262.028 24.871 C 261.962 23.636,260.866 23.200,257.829 23.200 C 255.676 23.200,254.798 23.055,254.794 22.700 C 254.790 22.366,254.657 22.399,254.394 22.800 C 253.926 23.512,253.066 22.591,253.384 21.719 C 253.584 21.174,226.948 20.960,226.171 21.501 M148.400 36.600 C 147.992 37.091,148.020 37.200,148.551 37.200 C 148.908 37.200,149.200 36.930,149.200 36.600 C 149.200 36.270,149.132 36.000,149.049 36.000 C 148.966 36.000,148.674 36.270,148.400 36.600 M126.000 126.951 C 126.000 127.034,126.270 127.326,126.600 127.600 C 127.091 128.008,127.200 127.980,127.200 127.449 C 127.200 127.092,126.930 126.800,126.600 126.800 C 126.270 126.800,126.000 126.868,126.000 126.951 M154.000 158.951 C 154.000 159.034,154.270 159.326,154.600 159.600 C 155.091 160.008,155.200 159.980,155.200 159.449 C 155.200 159.092,154.930 158.800,154.600 158.800 C 154.270 158.800,154.000 158.868,154.000 158.951 " stroke="none" fill="#1db5cb" fill-rule="evenodd"></path><path id="path1" d="M180.400 22.200 C 179.565 23.089,179.137 23.200,176.556 23.200 C 173.308 23.200,171.600 23.679,171.600 24.590 C 171.600 25.063,171.103 25.200,169.382 25.200 C 167.563 25.200,166.988 25.376,166.187 26.177 C 165.522 26.842,164.666 27.193,163.505 27.277 C 162.187 27.372,161.710 27.604,161.405 28.300 C 161.114 28.963,160.674 29.200,159.734 29.200 C 158.512 29.200,157.200 30.043,157.200 30.829 C 157.200 31.033,156.772 31.200,156.249 31.200 C 155.726 31.200,155.049 31.574,154.746 32.031 C 154.443 32.487,153.566 32.989,152.797 33.145 C 151.771 33.354,151.366 33.664,151.272 34.315 C 151.180 34.951,150.870 35.200,150.172 35.200 C 149.402 35.200,149.200 35.408,149.200 36.200 C 149.200 36.980,148.995 37.200,148.270 37.200 C 147.758 37.200,146.926 37.640,146.420 38.179 C 145.914 38.717,145.118 39.212,144.650 39.279 C 144.183 39.345,143.627 39.794,143.416 40.275 C 143.204 40.757,142.696 41.238,142.286 41.346 C 141.876 41.453,141.447 41.897,141.333 42.333 C 141.219 42.769,140.769 43.219,140.333 43.333 C 139.897 43.447,139.445 43.908,139.327 44.357 C 139.210 44.806,138.766 45.284,138.340 45.419 C 137.897 45.560,137.466 46.168,137.331 46.844 C 137.201 47.493,136.669 48.360,136.148 48.770 C 135.626 49.180,135.200 49.894,135.200 50.358 C 135.200 50.989,134.950 51.200,134.200 51.200 C 133.428 51.200,133.200 51.406,133.200 52.105 C 133.200 52.660,132.852 53.163,132.300 53.405 C 131.605 53.710,131.372 54.187,131.277 55.500 C 131.168 57.002,131.040 57.200,130.177 57.200 C 129.331 57.200,129.200 57.384,129.200 58.571 C 129.200 59.557,128.919 60.163,128.200 60.729 C 127.526 61.259,127.200 61.911,127.200 62.729 C 127.200 63.546,126.874 64.198,126.200 64.729 C 125.396 65.361,125.200 65.871,125.200 67.330 C 125.200 68.907,125.082 69.161,124.300 69.272 C 123.474 69.389,123.390 69.639,123.282 72.300 C 123.218 73.895,123.006 75.200,122.811 75.200 C 121.554 75.200,121.200 76.514,121.200 81.184 C 121.200 85.441,121.130 85.906,120.500 85.856 C 120.061 85.821,119.821 86.061,119.856 86.500 C 119.886 86.885,119.751 87.200,119.556 87.200 C 118.563 87.200,119.163 103.895,120.200 105.127 C 121.140 106.244,121.200 106.592,121.200 110.915 C 121.200 114.717,121.308 115.556,121.825 115.754 C 122.175 115.889,122.324 116.199,122.164 116.459 C 121.992 116.737,122.050 116.816,122.311 116.655 C 122.983 116.240,123.147 116.818,123.237 119.924 C 123.317 122.652,123.370 122.800,124.261 122.800 C 125.121 122.800,125.200 122.968,125.200 124.800 C 125.200 126.667,125.267 126.800,126.200 126.800 C 127.133 126.800,127.200 126.933,127.200 128.800 C 127.200 130.667,127.267 130.800,128.200 130.800 C 129.118 130.800,129.200 130.947,129.200 132.592 C 129.200 134.171,129.319 134.415,130.200 134.636 C 131.054 134.850,131.200 135.116,131.200 136.452 C 131.200 137.725,131.383 138.101,132.179 138.463 C 132.718 138.709,133.213 139.290,133.279 139.755 C 133.354 140.279,133.742 140.649,134.300 140.728 C 134.951 140.820,135.200 141.124,135.200 141.828 C 135.200 142.598,135.408 142.800,136.200 142.800 C 137.049 142.800,137.209 142.996,137.261 144.100 C 137.294 144.815,137.341 145.670,137.364 146.000 C 137.388 146.349,137.764 146.581,138.264 146.555 C 138.904 146.522,139.180 146.802,139.352 147.658 C 139.478 148.290,139.720 148.784,139.891 148.756 C 140.715 148.621,141.125 148.871,141.324 149.630 C 141.443 150.086,141.876 150.547,142.286 150.654 C 142.696 150.762,143.204 151.243,143.416 151.725 C 143.677 152.319,144.346 152.715,145.500 152.957 C 146.762 153.222,147.200 153.505,147.200 154.057 C 147.200 154.583,147.492 154.800,148.200 154.800 C 149.000 154.800,149.200 155.000,149.200 155.800 C 149.200 156.572,149.406 156.800,150.105 156.800 C 150.660 156.800,151.163 157.148,151.405 157.700 C 151.808 158.619,151.917 158.663,154.000 158.750 C 155.000 158.792,155.200 158.967,155.200 159.800 C 155.200 160.609,155.398 160.800,156.236 160.800 C 156.806 160.800,157.575 161.174,157.946 161.632 C 158.316 162.090,159.245 162.600,160.010 162.766 C 160.774 162.932,161.355 163.277,161.300 163.534 C 161.245 163.790,161.391 164.000,161.624 164.000 C 161.857 164.000,161.933 164.184,161.794 164.410 C 161.655 164.635,161.689 164.794,161.870 164.763 C 164.404 164.322,167.200 164.867,167.200 165.800 C 167.200 166.727,167.347 166.804,169.200 166.850 C 170.300 166.878,171.380 166.945,171.600 167.000 C 171.820 167.055,172.168 167.123,172.373 167.150 C 172.578 167.178,172.860 167.560,173.000 168.000 C 173.231 168.729,173.605 168.800,177.227 168.800 L 181.200 168.800 181.200 169.805 L 181.200 170.811 194.700 170.705 L 208.200 170.600 208.595 169.700 C 208.966 168.855,209.229 168.800,212.895 168.800 C 216.794 168.800,216.800 168.798,216.800 167.800 C 216.800 167.059,216.588 166.800,215.981 166.800 C 215.530 166.800,214.761 166.368,214.272 165.840 C 213.783 165.312,212.576 164.665,211.591 164.403 C 210.606 164.140,209.530 163.702,209.200 163.429 C 208.870 163.155,207.970 162.689,207.200 162.393 C 206.430 162.096,205.371 161.527,204.846 161.127 C 204.321 160.727,203.680 160.400,203.421 160.400 C 203.163 160.400,202.588 160.062,202.145 159.649 C 201.701 159.236,200.963 158.779,200.504 158.633 C 200.046 158.488,198.979 157.846,198.135 157.207 C 197.291 156.568,195.465 155.180,194.078 154.123 C 191.474 152.137,184.078 144.995,182.514 142.956 C 182.027 142.320,180.939 140.900,180.097 139.800 C 177.985 137.040,176.097 134.177,175.392 132.668 C 175.066 131.971,174.250 130.410,173.577 129.200 C 172.905 127.990,172.076 126.190,171.736 125.200 C 171.395 124.210,170.888 123.130,170.609 122.800 C 170.330 122.470,169.974 121.480,169.819 120.600 C 169.664 119.720,169.196 118.222,168.778 117.272 C 168.361 116.321,167.904 114.611,167.762 113.472 C 167.620 112.332,167.149 110.320,166.714 109.000 C 165.382 104.955,165.424 85.371,166.770 82.856 C 166.995 82.436,167.380 80.795,167.626 79.208 C 167.872 77.621,168.413 75.575,168.828 74.662 C 169.243 73.748,169.586 72.633,169.591 72.185 C 169.596 71.736,169.974 70.656,170.431 69.785 C 170.888 68.913,171.519 67.367,171.832 66.348 C 172.146 65.329,172.672 64.272,173.001 63.999 C 173.331 63.726,173.600 63.232,173.600 62.903 C 173.600 62.142,176.515 57.493,181.440 50.400 C 184.127 46.530,192.185 38.927,197.351 35.388 C 201.537 32.520,209.520 28.257,211.532 27.815 C 212.203 27.668,213.348 27.022,214.076 26.380 C 214.804 25.738,215.784 25.210,216.253 25.206 C 216.767 25.203,217.190 24.881,217.316 24.399 C 217.431 23.959,217.375 23.692,217.190 23.806 C 217.006 23.920,216.742 23.830,216.604 23.607 C 216.463 23.378,214.717 23.200,212.620 23.200 C 208.971 23.200,208.881 23.177,208.636 22.200 L 208.385 21.200 194.862 21.200 L 181.339 21.200 180.400 22.200 M253.206 21.814 C 253.217 22.503,253.948 23.385,254.254 23.079 C 254.418 22.915,254.248 22.477,253.876 22.105 C 253.504 21.733,253.203 21.602,253.206 21.814 M266.938 26.197 C 267.192 26.745,267.656 27.195,267.970 27.197 C 268.363 27.199,268.249 26.890,267.600 26.200 C 266.431 24.955,266.362 24.955,266.938 26.197 M287.473 37.754 C 287.164 38.559,287.717 39.201,288.236 38.641 C 288.553 38.300,288.535 38.042,288.172 37.703 C 287.789 37.345,287.625 37.357,287.473 37.754 M313.500 105.633 C 313.115 106.055,312.800 106.496,312.800 106.614 C 312.800 107.048,314.314 106.002,314.540 105.411 C 314.856 104.588,314.357 104.695,313.500 105.633 M301.570 138.265 C 301.036 138.850,300.870 139.168,301.200 138.971 C 301.530 138.774,301.963 138.609,302.162 138.606 C 302.361 138.603,302.570 138.285,302.626 137.900 C 302.760 136.991,302.716 137.006,301.570 138.265 M271.827 163.970 C 271.165 164.701,271.165 164.734,271.832 164.636 C 272.218 164.580,272.578 164.233,272.631 163.867 C 272.756 163.020,272.678 163.030,271.827 163.970 M261.700 167.300 C 261.755 167.575,261.562 167.751,261.270 167.690 C 260.979 167.630,260.860 167.773,261.006 168.010 C 261.192 168.311,261.440 168.299,261.836 167.970 C 262.491 167.427,262.579 166.800,262.000 166.800 C 261.780 166.800,261.645 167.025,261.700 167.300 " stroke="none" fill="#0494ac" fill-rule="evenodd"></path><path id="path2" d="M224.489 21.823 C 223.449 22.551,223.312 23.316,224.255 23.129 C 224.615 23.058,225.059 22.595,225.242 22.100 C 225.637 21.030,225.626 21.026,224.489 21.823 M329.200 143.200 L 329.200 261.200 328.002 261.200 L 326.805 261.200 326.702 228.300 L 326.600 195.400 316.889 195.293 L 307.178 195.186 306.187 196.177 L 305.195 197.168 305.298 228.884 L 305.400 260.600 306.300 260.728 C 307.178 260.853,307.200 260.976,307.200 265.828 L 307.200 270.800 308.200 270.800 C 309.133 270.800,309.200 270.933,309.200 272.800 C 309.200 274.667,309.267 274.800,310.200 274.800 C 311.000 274.800,311.200 275.000,311.200 275.800 C 311.200 276.733,311.333 276.800,313.200 276.800 C 315.067 276.800,315.200 276.867,315.200 277.800 L 315.200 278.800 322.200 278.800 L 329.200 278.800 329.140 303.100 C 329.107 316.465,329.005 326.905,328.913 326.300 C 328.770 325.351,328.562 325.200,327.402 325.200 C 326.445 325.200,325.832 324.912,325.271 324.200 C 324.839 323.650,324.114 323.200,323.661 323.200 C 323.207 323.200,322.386 322.750,321.836 322.200 L 320.836 321.200 309.018 321.200 L 297.200 321.200 297.200 322.200 C 297.200 323.133,297.067 323.200,295.200 323.200 C 293.333 323.200,293.200 323.267,293.200 324.200 C 293.200 325.000,293.000 325.200,292.200 325.200 C 291.400 325.200,291.200 325.400,291.200 326.200 C 291.200 327.000,291.000 327.200,290.200 327.200 C 289.328 327.200,289.200 327.375,289.200 328.571 C 289.200 329.557,288.919 330.163,288.200 330.729 L 287.200 331.515 287.200 339.158 L 287.200 346.800 288.200 346.800 C 289.133 346.800,289.200 346.933,289.200 348.800 C 289.200 350.667,289.267 350.800,290.200 350.800 C 291.000 350.800,291.200 351.000,291.200 351.800 C 291.200 352.672,291.375 352.800,292.571 352.800 C 293.557 352.800,294.163 353.081,294.729 353.800 C 295.161 354.350,295.829 354.800,296.212 354.800 C 296.595 354.800,297.325 355.250,297.835 355.800 C 298.609 356.635,299.128 356.800,300.981 356.800 C 303.081 356.800,303.200 356.854,303.200 357.800 C 303.200 358.733,303.333 358.800,305.200 358.800 C 307.067 358.800,307.200 358.867,307.200 359.800 C 307.200 360.733,307.333 360.800,309.200 360.800 L 311.200 360.800 311.200 363.000 L 311.200 365.200 306.243 365.200 C 301.290 365.200,301.287 365.199,301.036 364.200 C 300.815 363.322,300.569 363.200,299.020 363.200 C 297.495 363.200,297.238 363.078,297.128 362.300 C 297.007 361.446,296.800 361.394,293.100 361.286 L 289.200 361.171 289.200 363.186 C 289.200 365.068,289.134 365.200,288.200 365.200 C 287.400 365.200,287.200 365.400,287.200 366.200 C 287.200 367.000,287.000 367.200,286.200 367.200 C 285.408 367.200,285.200 367.402,285.200 368.172 C 285.200 368.876,284.951 369.180,284.300 369.272 C 283.482 369.388,283.389 369.647,283.282 372.100 L 283.163 374.800 285.182 374.800 C 287.068 374.800,287.200 374.865,287.200 375.800 C 287.200 376.572,287.406 376.800,288.105 376.800 C 288.660 376.800,289.163 377.148,289.405 377.700 C 289.750 378.486,290.143 378.615,292.500 378.718 C 295.068 378.831,295.200 378.885,295.200 379.818 L 295.200 380.800 307.000 380.800 L 318.800 380.800 318.800 379.800 C 318.800 378.867,318.933 378.800,320.800 378.800 C 322.667 378.800,322.800 378.733,322.800 377.800 C 322.800 376.962,322.989 376.800,323.967 376.800 C 325.602 376.800,328.439 374.033,328.823 372.065 C 329.005 371.129,329.125 372.441,329.154 375.700 L 329.200 380.800 337.000 380.800 L 344.800 380.800 344.800 203.000 L 344.800 25.200 337.000 25.200 L 329.200 25.200 329.200 143.200 M153.592 31.810 C 153.314 32.145,153.197 32.531,153.333 32.667 C 153.624 32.957,154.800 32.063,154.800 31.551 C 154.800 31.000,154.148 31.140,153.592 31.810 M279.099 32.186 C 279.206 32.744,279.542 33.200,279.847 33.200 C 280.616 33.200,280.537 32.648,279.653 31.848 C 278.940 31.203,278.914 31.218,279.099 32.186 M136.800 47.533 C 136.800 47.790,136.665 47.955,136.500 47.900 C 136.335 47.845,136.170 47.960,136.134 48.155 C 136.098 48.351,135.828 48.663,135.534 48.849 C 135.236 49.038,135.194 49.190,135.438 49.194 C 136.041 49.202,137.390 47.657,137.064 47.331 C 136.919 47.186,136.800 47.277,136.800 47.533 M128.800 59.533 C 128.800 59.790,128.665 59.955,128.500 59.900 C 128.335 59.845,128.170 59.960,128.134 60.155 C 128.098 60.351,127.828 60.663,127.534 60.849 C 127.236 61.038,127.194 61.190,127.438 61.194 C 128.041 61.202,129.390 59.657,129.064 59.331 C 128.919 59.186,128.800 59.277,128.800 59.533 M126.800 63.533 C 126.800 63.790,126.665 63.955,126.500 63.900 C 126.335 63.845,126.170 63.960,126.134 64.155 C 126.098 64.351,125.828 64.663,125.534 64.849 C 125.236 65.038,125.194 65.190,125.438 65.194 C 126.041 65.202,127.390 63.657,127.064 63.331 C 126.919 63.186,126.800 63.277,126.800 63.533 M306.800 64.213 C 306.800 64.857,307.865 65.469,308.274 65.059 C 308.559 64.774,307.655 63.600,307.151 63.600 C 306.958 63.600,306.800 63.876,306.800 64.213 M119.200 104.730 C 119.200 104.989,119.380 105.200,119.600 105.200 C 119.820 105.200,119.955 105.362,119.900 105.560 C 119.845 105.758,119.960 105.923,120.155 105.926 C 120.351 105.929,120.663 106.172,120.849 106.466 C 121.035 106.760,121.191 106.806,121.194 106.570 C 121.197 106.333,120.750 105.717,120.200 105.200 C 119.650 104.683,119.200 104.472,119.200 104.730 M306.938 127.417 C 306.808 127.757,306.809 128.142,306.941 128.274 C 307.226 128.559,308.400 127.655,308.400 127.151 C 308.400 126.547,307.187 126.768,306.938 127.417 M127.600 131.151 C 127.600 131.655,128.774 132.559,129.059 132.274 C 129.469 131.865,128.857 130.800,128.213 130.800 C 127.876 130.800,127.600 130.958,127.600 131.151 M135.600 143.151 C 135.600 143.655,136.774 144.559,137.059 144.274 C 137.469 143.865,136.857 142.800,136.213 142.800 C 135.876 142.800,135.600 142.958,135.600 143.151 M297.200 143.649 C 297.200 144.358,297.299 144.416,297.800 144.000 C 298.130 143.726,298.400 143.344,298.400 143.151 C 298.400 142.958,298.130 142.800,297.800 142.800 C 297.455 142.800,297.200 143.161,297.200 143.649 M145.200 153.520 C 145.200 154.045,146.117 154.800,146.755 154.800 C 147.195 154.800,147.126 154.590,146.492 154.000 C 145.574 153.145,145.200 153.006,145.200 153.520 M279.200 159.649 C 279.200 160.358,279.299 160.416,279.800 160.000 C 280.130 159.726,280.400 159.344,280.400 159.151 C 280.400 158.958,280.130 158.800,279.800 158.800 C 279.455 158.800,279.200 159.161,279.200 159.649 M165.600 165.151 C 165.600 165.655,166.774 166.559,167.059 166.274 C 167.469 165.865,166.857 164.800,166.213 164.800 C 165.876 164.800,165.600 164.958,165.600 165.151 M267.693 165.600 C 267.416 166.043,267.367 166.400,267.583 166.400 C 267.797 166.400,268.165 166.040,268.400 165.600 C 268.635 165.160,268.685 164.800,268.510 164.800 C 268.335 164.800,267.968 165.160,267.693 165.600 M179.600 169.151 C 179.600 169.655,180.774 170.559,181.059 170.274 C 181.469 169.865,180.857 168.800,180.213 168.800 C 179.876 168.800,179.600 168.958,179.600 169.151 M275.200 232.993 L 275.200 270.800 276.200 270.800 C 277.133 270.800,277.200 270.933,277.200 272.800 C 277.200 274.667,277.267 274.800,278.200 274.800 C 279.000 274.800,279.200 275.000,279.200 275.800 C 279.200 276.733,279.333 276.800,281.200 276.800 C 283.067 276.800,283.200 276.867,283.200 277.800 L 283.200 278.800 291.776 278.800 C 301.673 278.800,300.898 279.171,301.129 274.324 C 301.353 269.641,300.977 267.200,300.030 267.200 C 299.432 267.200,299.274 266.764,299.104 264.642 C 298.845 261.417,298.699 261.200,296.776 261.200 L 295.200 261.200 295.153 229.500 C 295.127 212.065,294.990 197.260,294.849 196.600 L 294.593 195.400 284.896 195.293 L 275.200 195.186 275.200 232.993 M81.848 200.186 C 80.994 201.108,80.635 201.180,76.367 201.286 C 72.097 201.393,71.775 201.457,71.413 202.282 C 71.110 202.973,70.634 203.189,69.213 203.282 C 67.681 203.382,67.380 203.539,67.272 204.300 C 67.180 204.951,66.876 205.200,66.172 205.200 C 65.402 205.200,65.200 205.408,65.200 206.200 C 65.200 207.000,65.000 207.200,64.200 207.200 C 63.400 207.200,63.200 207.400,63.200 208.200 C 63.200 209.000,63.000 209.200,62.200 209.200 C 61.408 209.200,61.200 209.402,61.200 210.172 C 61.200 210.876,60.951 211.180,60.300 211.272 C 59.532 211.381,59.382 211.679,59.278 213.304 C 59.190 214.682,58.886 215.478,58.178 216.186 C 57.217 217.146,57.200 217.283,57.200 223.982 L 57.200 230.800 58.200 230.800 C 59.133 230.800,59.200 230.933,59.200 232.800 C 59.200 234.667,59.267 234.800,60.200 234.800 C 61.133 234.800,61.200 234.933,61.200 236.800 C 61.200 238.667,61.267 238.800,62.200 238.800 C 63.000 238.800,63.200 239.000,63.200 239.800 C 63.200 240.554,63.410 240.800,64.054 240.800 C 64.524 240.800,65.325 241.250,65.835 241.800 C 66.433 242.445,67.194 242.800,67.981 242.800 C 69.015 242.800,69.200 242.952,69.200 243.800 C 69.200 244.731,69.335 244.800,71.172 244.800 C 72.913 244.800,73.159 244.906,73.272 245.700 C 73.389 246.526,73.639 246.610,76.300 246.718 C 79.081 246.830,79.200 246.875,79.200 247.818 C 79.200 248.730,79.343 248.800,81.200 248.800 C 83.067 248.800,83.200 248.867,83.200 249.800 C 83.200 250.733,83.333 250.800,85.200 250.800 C 87.067 250.800,87.200 250.867,87.200 251.800 C 87.200 252.733,87.333 252.800,89.200 252.800 L 91.200 252.800 91.200 256.000 C 91.200 258.987,91.144 259.200,90.358 259.200 C 89.894 259.200,89.161 259.650,88.729 260.200 C 87.562 261.683,78.937 261.770,78.728 260.300 C 78.619 259.532,78.321 259.382,76.696 259.278 C 75.318 259.190,74.522 258.886,73.814 258.178 C 73.276 257.640,72.378 257.200,71.818 257.200 C 70.999 257.200,70.800 257.005,70.800 256.200 C 70.800 255.267,70.667 255.200,68.800 255.200 C 66.933 255.200,66.800 255.133,66.800 254.200 C 66.800 253.281,66.653 253.200,65.000 253.200 C 63.347 253.200,63.200 253.281,63.200 254.200 C 63.200 255.000,63.000 255.200,62.200 255.200 C 61.446 255.200,61.200 255.410,61.200 256.054 C 61.200 256.524,60.750 257.325,60.200 257.835 C 59.555 258.433,59.200 259.194,59.200 259.981 C 59.200 261.015,59.048 261.200,58.200 261.200 C 57.400 261.200,57.200 261.400,57.200 262.200 C 57.200 263.004,57.001 263.200,56.185 263.200 L 55.170 263.200 55.285 266.900 L 55.400 270.600 57.300 270.722 C 59.015 270.832,59.200 270.939,59.200 271.822 C 59.200 272.591,59.408 272.800,60.172 272.800 C 60.876 272.800,61.180 273.049,61.272 273.700 C 61.381 274.466,61.679 274.618,63.275 274.721 C 64.856 274.823,65.169 274.979,65.275 275.721 C 65.388 276.518,65.662 276.611,68.212 276.716 C 70.671 276.817,71.073 276.942,71.412 277.716 C 71.796 278.592,71.898 278.601,82.300 278.707 L 92.800 278.813 92.800 277.807 C 92.800 276.821,92.861 276.800,95.800 276.800 C 98.733 276.800,98.800 276.778,98.800 275.800 C 98.800 274.867,98.933 274.800,100.800 274.800 C 102.667 274.800,102.800 274.733,102.800 273.800 C 102.800 273.000,103.000 272.800,103.800 272.800 C 104.600 272.800,104.800 272.600,104.800 271.800 C 104.800 271.000,105.000 270.800,105.800 270.800 C 106.600 270.800,106.800 270.600,106.800 269.800 C 106.800 269.000,107.000 268.800,107.800 268.800 C 108.554 268.800,108.800 268.590,108.800 267.946 C 108.800 267.476,109.250 266.675,109.800 266.165 C 110.635 265.391,110.800 264.872,110.800 263.019 C 110.800 261.799,110.967 260.800,111.171 260.800 C 112.476 260.800,112.800 259.521,112.800 254.371 L 112.800 249.200 111.800 249.200 C 110.822 249.200,110.800 249.133,110.800 246.200 C 110.800 243.267,110.778 243.200,109.800 243.200 C 109.002 243.200,108.800 243.000,108.800 242.207 C 108.800 241.318,108.242 240.502,105.900 237.960 C 105.511 237.538,104.666 237.200,104.000 237.200 C 102.987 237.200,102.800 237.044,102.800 236.200 C 102.800 235.328,102.625 235.200,101.429 235.200 C 100.443 235.200,99.837 234.919,99.271 234.200 C 98.636 233.392,98.131 233.200,96.642 233.200 C 94.944 233.200,94.800 233.122,94.800 232.200 C 94.800 231.273,94.660 231.200,92.895 231.200 C 91.303 231.200,90.925 231.052,90.595 230.300 C 90.250 229.514,89.857 229.385,87.500 229.282 C 84.932 229.169,84.800 229.115,84.800 228.182 C 84.800 227.270,84.657 227.200,82.800 227.200 C 80.933 227.200,80.800 227.133,80.800 226.200 C 80.800 225.400,80.600 225.200,79.800 225.200 C 79.000 225.200,78.800 225.000,78.800 224.200 C 78.800 223.385,78.604 223.200,77.742 223.200 L 76.683 223.200 77.742 222.219 C 78.434 221.578,78.800 220.822,78.800 220.036 L 78.800 218.834 81.900 218.717 C 89.744 218.421,93.200 218.760,93.200 219.826 C 93.200 220.591,93.409 220.800,94.172 220.800 C 94.876 220.800,95.180 221.049,95.272 221.700 C 95.393 222.549,95.608 222.606,99.100 222.715 L 102.800 222.830 102.800 221.815 C 102.800 220.999,102.996 220.800,103.800 220.800 C 104.600 220.800,104.800 220.600,104.800 219.800 C 104.800 219.000,105.000 218.800,105.800 218.800 C 106.554 218.800,106.800 218.590,106.800 217.946 C 106.800 217.476,107.250 216.675,107.800 216.165 C 108.435 215.576,108.800 214.804,108.800 214.047 C 108.800 213.116,108.997 212.828,109.700 212.728 C 110.462 212.620,110.600 212.355,110.600 211.000 C 110.600 209.645,110.462 209.380,109.700 209.272 C 109.049 209.180,108.800 208.876,108.800 208.172 C 108.800 207.407,108.591 207.200,107.818 207.200 C 107.278 207.200,106.386 206.750,105.836 206.200 C 105.286 205.650,104.378 205.200,103.818 205.200 C 102.999 205.200,102.800 205.005,102.800 204.200 C 102.800 203.267,102.667 203.200,100.800 203.200 C 99.700 203.200,98.800 203.033,98.800 202.829 C 98.800 201.579,97.491 201.200,93.171 201.200 C 90.748 201.200,88.800 201.034,88.800 200.829 C 88.800 198.966,83.438 198.470,81.848 200.186 M147.200 218.172 C 147.200 219.118,147.075 219.169,144.500 219.282 C 142.143 219.385,141.750 219.514,141.405 220.300 C 141.163 220.852,140.660 221.200,140.105 221.200 C 139.406 221.200,139.200 221.428,139.200 222.200 C 139.200 222.993,138.998 223.200,138.227 223.200 C 137.472 223.200,137.216 223.447,137.087 224.300 C 136.995 224.905,136.893 224.005,136.860 222.300 L 136.800 219.200 128.000 219.200 L 119.200 219.200 119.200 248.000 L 119.200 276.800 129.000 276.800 L 138.800 276.800 138.800 258.828 L 138.800 240.856 139.700 240.728 C 140.270 240.647,140.646 240.279,140.725 239.725 C 140.802 239.179,141.179 238.802,141.725 238.725 C 142.279 238.646,142.647 238.270,142.728 237.700 C 142.820 237.049,143.124 236.800,143.828 236.800 C 144.598 236.800,144.800 236.592,144.800 235.800 C 144.800 234.855,144.920 234.800,147.000 234.800 C 149.080 234.800,149.200 234.855,149.200 235.800 C 149.200 236.600,149.400 236.800,150.200 236.800 C 151.146 236.800,151.200 236.919,151.200 239.019 C 151.200 240.872,151.365 241.391,152.200 242.165 L 153.200 243.092 153.200 259.946 L 153.200 276.800 163.000 276.800 L 172.800 276.800 172.800 257.800 L 172.800 238.800 173.800 238.800 C 174.594 238.800,174.800 238.599,174.800 237.822 C 174.800 236.939,174.985 236.832,176.700 236.722 C 178.321 236.618,178.619 236.468,178.728 235.700 C 178.898 234.499,181.020 234.403,181.394 235.580 C 181.530 236.008,181.992 236.470,182.420 236.606 C 182.912 236.762,183.200 237.214,183.200 237.827 C 183.200 238.598,183.407 238.800,184.200 238.800 L 185.200 238.800 185.200 257.800 L 185.200 276.800 195.000 276.800 L 204.800 276.800 204.800 254.158 L 204.800 231.515 203.800 230.729 C 202.934 230.048,202.800 229.624,202.800 227.571 C 202.800 225.309,202.754 225.200,201.800 225.200 C 201.000 225.200,200.800 225.000,200.800 224.200 C 200.800 223.400,200.600 223.200,199.800 223.200 C 199.000 223.200,198.800 223.000,198.800 222.200 C 198.800 221.400,198.600 221.200,197.800 221.200 C 197.000 221.200,196.800 221.000,196.800 220.200 C 196.800 219.267,196.667 219.200,194.800 219.200 C 192.933 219.200,192.800 219.133,192.800 218.200 L 192.800 217.200 186.000 217.200 L 179.200 217.200 179.200 218.200 C 179.200 219.133,179.067 219.200,177.200 219.200 C 175.333 219.200,175.200 219.267,175.200 220.200 C 175.200 221.072,175.025 221.200,173.829 221.200 C 172.527 221.200,171.200 222.022,171.200 222.829 C 171.200 223.033,170.762 223.200,170.227 223.200 C 169.472 223.200,169.216 223.447,169.087 224.300 L 168.920 225.400 168.860 224.300 C 168.811 223.409,168.610 223.200,167.800 223.200 C 167.000 223.200,166.800 223.000,166.800 222.200 C 166.800 221.400,166.600 221.200,165.800 221.200 C 165.000 221.200,164.800 221.000,164.800 220.200 C 164.800 219.269,164.665 219.200,162.828 219.200 C 161.087 219.200,160.841 219.094,160.728 218.300 C 160.602 217.413,160.506 217.398,153.900 217.290 L 147.200 217.181 147.200 218.172 M231.467 217.467 C 231.320 217.613,231.200 218.063,231.200 218.467 C 231.200 219.113,230.842 219.200,228.200 219.200 C 225.281 219.200,225.200 219.227,225.200 220.182 C 225.200 221.125,225.081 221.170,222.300 221.282 C 219.639 221.390,219.389 221.474,219.272 222.300 C 219.166 223.050,218.895 223.200,217.652 223.200 C 215.486 223.200,215.200 223.698,215.200 227.480 C 215.200 230.755,215.214 230.800,216.200 230.800 C 217.133 230.800,217.200 230.933,217.200 232.800 C 217.200 234.667,217.267 234.800,218.200 234.800 C 219.091 234.800,219.200 234.965,219.200 236.320 C 219.200 238.516,219.689 238.800,223.480 238.800 C 226.755 238.800,226.800 238.786,226.800 237.800 C 226.800 236.867,226.933 236.800,228.800 236.800 C 230.667 236.800,230.800 236.733,230.800 235.800 L 230.800 234.800 236.000 234.800 L 241.200 234.800 241.200 235.800 C 241.200 236.600,241.400 236.800,242.200 236.800 C 243.042 236.800,243.200 236.987,243.200 237.988 L 243.200 239.175 238.300 239.288 C 233.562 239.396,233.396 239.430,233.272 240.300 C 233.153 241.141,232.950 241.200,230.172 241.200 C 227.269 241.200,227.200 241.223,227.200 242.200 C 227.200 243.154,227.091 243.200,224.829 243.200 C 222.551 243.200,221.200 243.806,221.200 244.829 C 221.200 245.033,220.750 245.200,220.200 245.200 C 219.400 245.200,219.200 245.400,219.200 246.200 C 219.200 247.000,219.000 247.200,218.200 247.200 C 217.400 247.200,217.200 247.400,217.200 248.200 C 217.200 249.000,217.000 249.200,216.200 249.200 C 215.267 249.200,215.200 249.333,215.200 251.200 C 215.200 253.067,215.133 253.200,214.200 253.200 L 213.200 253.200 213.200 261.000 L 213.200 268.800 214.200 268.800 C 215.133 268.800,215.200 268.933,215.200 270.800 C 215.200 272.667,215.267 272.800,216.200 272.800 C 217.000 272.800,217.200 273.000,217.200 273.800 C 217.200 274.600,217.400 274.800,218.200 274.800 C 219.000 274.800,219.200 275.000,219.200 275.800 C 219.200 276.733,219.333 276.800,221.200 276.800 C 223.067 276.800,223.200 276.867,223.200 277.800 L 223.200 278.800 231.000 278.800 L 238.800 278.800 238.800 277.800 C 238.800 276.867,238.933 276.800,240.800 276.800 C 242.667 276.800,242.800 276.733,242.800 275.800 C 242.800 274.868,242.935 274.800,244.773 274.800 C 246.619 274.800,246.758 274.729,246.913 273.700 C 247.005 273.095,247.107 273.549,247.140 274.708 L 247.200 276.816 255.900 276.708 L 264.600 276.600 264.709 259.400 C 264.814 242.794,264.791 242.178,264.042 241.563 C 263.359 241.002,263.250 240.289,263.133 235.626 C 263.012 230.788,262.926 230.268,262.148 229.638 C 261.649 229.235,261.175 228.235,261.004 227.226 C 260.807 226.058,260.480 225.442,259.990 225.313 C 259.593 225.209,259.159 224.691,259.026 224.162 C 258.874 223.555,258.495 223.200,258.000 223.200 C 257.497 223.200,257.125 222.842,256.964 222.200 C 256.739 221.304,256.510 221.200,254.757 221.200 C 252.936 221.200,252.800 221.130,252.800 220.200 C 252.800 219.277,252.657 219.200,250.946 219.200 C 249.482 219.200,248.897 218.990,248.165 218.200 L 247.238 217.200 239.486 217.200 C 235.222 217.200,231.613 217.320,231.467 217.467 M243.200 255.972 C 243.200 258.957,243.147 259.152,242.300 259.272 C 241.722 259.354,241.354 259.722,241.272 260.300 C 241.180 260.951,240.876 261.200,240.172 261.200 C 239.402 261.200,239.200 261.408,239.200 262.200 C 239.200 263.145,239.080 263.200,237.000 263.200 C 234.920 263.200,234.800 263.145,234.800 262.200 C 234.800 261.400,234.600 261.200,233.800 261.200 C 232.855 261.200,232.800 261.080,232.800 259.000 C 232.800 256.920,232.855 256.800,233.800 256.800 C 234.600 256.800,234.800 256.600,234.800 255.800 C 234.800 254.867,234.933 254.800,236.800 254.800 C 238.667 254.800,238.800 254.733,238.800 253.800 C 238.800 252.855,238.920 252.800,241.000 252.800 L 243.200 252.800 243.200 255.972 M195.829 297.829 C 195.483 298.174,195.200 298.612,195.200 298.801 C 195.200 298.990,194.795 299.202,194.300 299.272 C 193.413 299.398,193.398 299.494,193.290 306.100 L 193.181 312.800 194.190 312.800 C 195.001 312.800,195.200 312.997,195.200 313.800 C 195.200 314.600,195.400 314.800,196.200 314.800 C 197.003 314.800,197.200 314.999,197.200 315.810 L 197.200 316.819 203.900 316.710 C 210.506 316.602,210.602 316.587,210.728 315.700 C 210.820 315.049,211.124 314.800,211.828 314.800 C 212.598 314.800,212.800 314.592,212.800 313.800 C 212.800 313.000,213.000 312.800,213.800 312.800 L 214.800 312.800 214.800 307.000 L 214.800 301.200 213.800 301.200 C 213.000 301.200,212.800 301.000,212.800 300.200 C 212.800 299.400,212.600 299.200,211.800 299.200 C 211.000 299.200,210.800 299.000,210.800 298.200 L 210.800 297.200 203.629 297.200 C 197.642 297.200,196.353 297.304,195.829 297.829 M97.467 303.467 C 96.567 304.366,97.211 310.800,98.200 310.800 L 99.200 310.800 99.200 316.019 C 99.200 321.054,99.235 321.271,100.187 322.153 C 101.114 323.012,101.180 323.352,101.287 327.834 C 101.396 332.433,101.432 332.604,102.300 332.728 C 103.178 332.853,103.200 332.976,103.200 337.828 L 103.200 342.800 104.189 342.800 L 105.178 342.800 105.289 348.500 C 105.396 353.976,105.435 354.215,106.300 354.595 C 107.163 354.973,107.200 355.192,107.200 359.895 L 107.200 364.800 108.200 364.800 L 109.200 364.800 109.200 369.818 C 109.200 374.638,109.240 374.876,110.200 375.836 C 110.998 376.634,111.200 377.238,111.200 378.818 L 111.200 380.800 123.000 380.800 L 134.800 380.800 134.800 377.800 C 134.800 374.867,134.822 374.800,135.800 374.800 L 136.800 374.800 136.800 370.429 C 136.800 366.243,136.842 366.025,137.800 365.271 C 138.738 364.534,138.800 364.255,138.800 360.788 C 138.800 357.359,138.872 357.025,139.800 356.165 C 140.742 355.292,140.800 354.999,140.800 351.114 C 140.800 347.221,140.850 346.968,141.700 346.595 C 142.558 346.218,142.610 345.931,142.817 340.400 L 143.034 334.600 143.117 339.542 C 143.197 344.291,143.239 344.516,144.200 345.271 C 145.158 346.025,145.200 346.243,145.200 350.429 L 145.200 354.800 146.188 354.800 L 147.175 354.800 147.288 359.700 C 147.396 364.438,147.430 364.604,148.300 364.728 C 149.161 364.850,149.200 365.019,149.200 368.670 C 149.200 372.263,149.258 372.531,150.200 373.271 C 151.125 373.999,151.200 374.310,151.200 377.429 L 151.200 380.800 163.018 380.800 L 174.836 380.800 175.818 379.818 C 176.756 378.881,176.800 378.611,176.800 373.846 C 176.800 368.975,176.822 368.853,177.700 368.728 C 178.581 368.603,178.602 368.476,178.711 362.700 L 178.821 356.800 179.811 356.800 L 180.800 356.800 180.800 351.800 C 180.800 348.990,180.963 346.800,181.171 346.800 C 182.488 346.800,182.800 345.529,182.800 340.171 L 182.800 334.800 183.800 334.800 L 184.800 334.800 184.800 329.429 C 184.800 324.176,184.822 324.041,185.800 323.271 C 186.768 322.510,186.800 322.329,186.800 317.670 C 186.800 312.982,186.824 312.852,187.700 312.728 C 188.574 312.604,188.600 312.466,188.600 308.000 L 188.600 303.400 179.000 303.400 L 169.400 303.400 169.288 308.300 L 169.175 313.200 168.188 313.200 L 167.200 313.200 167.200 320.200 L 167.200 327.200 166.200 327.200 L 165.200 327.200 165.200 333.571 C 165.200 339.890,165.192 339.948,164.200 340.729 C 163.208 341.508,163.199 341.574,163.116 348.458 C 163.058 353.172,162.990 354.084,162.902 351.300 C 162.773 347.244,162.761 347.200,161.786 347.200 L 160.800 347.200 160.800 342.200 L 160.800 337.200 159.800 337.200 L 158.800 337.200 158.800 333.182 C 158.800 329.445,158.731 329.095,157.814 328.178 C 156.922 327.286,156.818 326.824,156.714 323.296 C 156.606 319.600,156.554 319.393,155.700 319.272 C 154.836 319.149,154.800 318.987,154.800 315.172 C 154.800 311.202,154.800 311.200,153.800 311.200 C 152.809 311.200,152.800 311.168,152.800 307.680 C 152.800 302.935,153.350 303.200,143.520 303.200 L 135.200 303.200 135.200 305.200 C 135.200 307.067,135.133 307.200,134.200 307.200 C 133.203 307.200,133.200 307.210,133.200 311.054 C 133.200 314.651,133.133 314.970,132.200 315.835 C 131.255 316.711,131.200 316.994,131.200 320.981 L 131.200 325.200 130.200 325.200 C 129.200 325.200,129.200 325.202,129.200 329.172 C 129.200 332.987,129.164 333.149,128.300 333.272 C 127.430 333.396,127.396 333.562,127.288 338.300 L 127.175 343.200 126.188 343.200 L 125.200 343.200 125.123 348.300 L 125.045 353.400 124.823 349.400 C 124.613 345.635,124.547 345.392,123.700 345.272 C 122.806 345.145,122.800 345.098,122.800 338.172 L 122.800 331.200 121.809 331.200 L 120.819 331.200 120.709 324.300 C 120.601 317.487,120.589 317.398,119.700 317.272 C 118.814 317.146,118.800 317.052,118.800 311.403 L 118.800 305.662 117.569 304.431 L 116.338 303.200 107.036 303.200 C 101.919 303.200,97.613 303.320,97.467 303.467 M193.200 351.000 L 193.200 380.800 203.200 380.800 C 212.667 380.800,213.243 380.757,214.000 380.000 C 215.110 378.890,215.275 322.932,214.171 321.829 C 213.633 321.290,212.085 321.200,203.371 321.200 L 193.200 321.200 193.200 351.000 M225.200 351.000 L 225.200 380.800 235.000 380.800 L 244.800 380.800 244.800 361.818 L 244.800 342.836 245.818 341.818 C 246.378 341.258,247.278 340.800,247.818 340.800 C 248.599 340.800,248.800 340.595,248.800 339.800 C 248.800 338.868,248.935 338.800,250.773 338.800 C 252.619 338.800,252.758 338.729,252.913 337.700 L 253.080 336.600 253.140 337.700 C 253.197 338.745,253.299 338.800,255.200 338.800 L 257.200 338.800 257.200 359.000 C 257.200 378.667,257.221 379.221,258.000 380.000 C 258.757 380.757,259.333 380.800,268.748 380.800 L 278.695 380.800 278.943 379.300 C 279.272 377.312,279.264 341.041,278.935 339.047 C 278.763 338.010,278.432 337.429,277.939 337.300 C 277.322 337.139,277.199 336.701,277.196 334.653 C 277.189 330.928,276.815 329.200,276.015 329.200 C 275.521 329.200,275.233 328.678,274.967 327.300 C 274.672 325.770,274.425 325.375,273.700 325.272 C 273.049 325.180,272.800 324.876,272.800 324.172 C 272.800 323.289,272.638 323.200,271.028 323.200 C 269.495 323.200,269.238 323.079,269.128 322.300 L 269.000 321.400 259.100 321.293 L 249.200 321.186 249.200 322.193 C 249.200 323.135,249.070 323.200,247.200 323.200 C 245.333 323.200,245.200 323.267,245.200 324.200 C 245.200 324.993,244.998 325.200,244.227 325.200 C 243.472 325.200,243.216 325.447,243.087 326.300 C 242.995 326.905,242.893 326.455,242.860 325.300 C 242.804 323.343,242.732 323.200,241.800 323.200 C 241.000 323.200,240.800 323.000,240.800 322.200 L 240.800 321.200 233.000 321.200 L 225.200 321.200 225.200 351.000 M329.140 342.700 C 329.107 348.585,329.005 352.905,328.913 352.300 C 328.784 351.447,328.528 351.200,327.773 351.200 C 327.002 351.200,326.800 350.993,326.800 350.200 C 326.800 349.400,326.600 349.200,325.800 349.200 C 325.000 349.200,324.800 349.000,324.800 348.200 C 324.800 347.267,324.667 347.200,322.800 347.200 C 320.933 347.200,320.800 347.133,320.800 346.200 C 320.800 345.267,320.667 345.200,318.800 345.200 C 316.933 345.200,316.800 345.133,316.800 344.200 C 316.800 343.277,316.657 343.200,314.946 343.200 C 313.482 343.200,312.897 342.990,312.165 342.200 C 311.391 341.365,310.872 341.200,309.019 341.200 C 306.919 341.200,306.800 341.146,306.800 340.200 C 306.800 339.385,306.596 339.193,305.700 339.160 L 304.600 339.120 305.600 338.844 C 306.214 338.674,306.649 338.226,306.728 337.684 C 306.850 336.837,307.029 336.800,311.028 336.800 L 315.200 336.800 315.200 337.800 C 315.200 338.733,315.333 338.800,317.200 338.800 C 319.067 338.800,319.200 338.867,319.200 339.800 C 319.200 340.697,319.362 340.800,320.769 340.800 C 322.528 340.800,324.800 338.979,324.800 337.569 C 324.800 337.015,325.080 336.800,325.800 336.800 C 326.600 336.800,326.800 336.600,326.800 335.800 C 326.800 335.000,327.000 334.800,327.800 334.800 C 328.676 334.800,328.800 334.627,328.800 333.400 C 328.800 332.630,328.890 332.000,329.000 332.000 C 329.110 332.000,329.173 336.815,329.140 342.700 " stroke="none" fill="#040404" fill-rule="evenodd"></path><path id="path3" d="M146.000 153.351 C 146.000 153.434,146.270 153.726,146.600 154.000 C 147.091 154.408,147.200 154.380,147.200 153.849 C 147.200 153.492,146.930 153.200,146.600 153.200 C 146.270 153.200,146.000 153.268,146.000 153.351 " stroke="none" fill="#186c38" fill-rule="evenodd"></path><path id="path4" d="" stroke="none" fill="#18043c" fill-rule="evenodd"></path></g></svg>